<?xml version="1.0" standalone="no"?>
<!DOCTYPE svg PUBLIC "-//W3C//DTD SVG 20010904//EN"
 "http://www.w3.org/TR/2001/REC-SVG-20010904/DTD/svg10.dtd">
<svg version="1.0" xmlns="http://www.w3.org/2000/svg"
 width="1279.000000pt" height="1280.000000pt" viewBox="0 0 1279.000000 1280.000000"
 preserveAspectRatio="xMidYMid meet">
<metadata>
Created by potrace 1.15, written by Peter Selinger 2001-2017
</metadata>
<g transform="translate(0.000000,1280.000000) scale(0.100000,-0.100000)"
fill="#000000" stroke="none">
<path d="M8860 12794 c-14 -2 -59 -9 -100 -15 -239 -33 -517 -147 -776 -317
-253 -167 -443 -325 -819 -682 -289 -274 -407 -378 -542 -479 -519 -386 -1257
-658 -2443 -901 l-156 -32 -89 58 c-553 357 -1131 620 -1767 804 -195 57 -477
-122 -628 146 -125 19 -378 22 -470 5 -396 -73 -610 -344 -660 -836 -17 -158
-8 -489 20 -755 94 -917 291 -1732 625 -2595 130 -336 155 -428 155 -568 -1
-133 -47 -238 -167 -378 -26 -31 -117 -129 -200 -218 -84 -89 -193 -216 -242
-281 -327 -434 -515 -957 -583 -1620 -17 -164 -17 -713 0 -895 41 -446 102
-807 228 -1360 75 -325 82 -363 100 -490 18 -130 46 -197 103 -251 33 -32 139
-89 148 -80 2 1 -15 56 -37 122 -331 981 -467 2193 -345 3069 63 449 180 794
364 1066 84 125 155 206 249 283 417 340 958 352 1592 35 731 -366 1229 -927
1365 -1539 26 -118 31 -375 10 -501 -81 -484 -404 -847 -863 -971 -121 -33
-373 -37 -520 -9 -458 88 -858 409 -1068 857 -25 55 -62 131 -80 171 -64 135
-170 194 -224 125 -50 -62 -4 -272 106 -482 83 -160 174 -280 324 -431 228
-229 457 -359 755 -427 138 -32 259 -42 645 -52 374 -10 459 -19 603 -65 115
-37 218 -87 326 -159 133 -89 222 -165 476 -406 251 -238 343 -317 469 -402
118 -79 219 -129 347 -171 94 -32 188 -52 609 -132 404 -78 626 -196 775 -414
l46 -68 -25 -89 c-67 -241 -97 -383 -87 -403 12 -22 107 -61 151 -61 58 0 66
17 130 273 86 350 118 437 206 568 110 164 210 287 348 425 394 392 882 646
1363 709 611 80 1175 -201 1482 -740 132 -232 196 -482 189 -743 l-3 -132 30
-12 c96 -40 221 27 261 139 18 52 17 209 -2 318 -47 272 -223 638 -431 895
-61 75 -221 235 -320 320 l-53 45 236 415 c707 1245 769 1347 864 1433 94 85
219 109 337 65 78 -28 185 -136 231 -229 96 -197 82 -365 -63 -767 -116 -325
-141 -460 -132 -720 8 -257 61 -471 177 -711 149 -307 359 -552 628 -732 123
-83 235 -137 379 -185 180 -61 272 -48 338 45 l30 43 -2 236 c-4 659 -168
1348 -472 1977 -103 213 -190 365 -326 570 -138 207 -243 342 -456 585 -195
223 -275 333 -340 465 -66 136 -89 237 -89 395 0 160 16 253 94 563 104 407
141 633 155 939 22 501 -50 960 -239 1510 -33 97 -128 346 -211 555 -364 913
-411 1112 -454 1933 -24 472 -43 684 -76 880 -79 471 -251 842 -508 1101 -185
185 -377 292 -623 345 -70 15 -326 27 -378 18z"/>
</g>
</svg>
